# xmcd
#
# Track frame offsets:
#	150
#	10725
#	20048
#	31717
#	44403
#	54548
#	65889
#	75321
#	93880
#	113056
#	125850
#
# Disc length: 1882 seconds
#
# Revision: 0
# Processed by: cddbd v1.5.2PL0 Copyright (c) Steve Scherf et al.
# Submitted via: EasyCDDAExtractor 4.6.9.1
#
DISCID=8907580b
DTITLE=Aretha Franklin - Soul Gems
DYEAR=1900
DGENRE=Soul
TTITLE0=sweet sweet baby
TTITLE1=good times
TTITLE2=over the rainbow
TTITLE3=sky lark
TTITLE4=don't let me loose this dream
TTITLE5=you made me love you
TTITLE6=you send me
TTITLE7=ain't no way
TTITLE8=a change is gonna come
TTITLE9=good times
TTITLE10=misty
EXTD=
EXTT0=
EXTT1=
EXTT2=
EXTT3=
EXTT4=
EXTT5=
EXTT6=
EXTT7=
EXTT8=
EXTT9=
EXTT10=
PLAYORDER=
